<svg width="46" height="18" viewBox="0 0 46 18" fill="none" xmlns="http://www.w3.org/2000/svg">
<path d="M42.2075 11.7172H40.9828C40.7292 11.7172 40.5179 11.5494 40.5179 11.3396C40.5179 11.0879 40.7292 10.9621 40.9828 10.9621H43.2209L43.728 9.83026H40.9828C39.8426 9.83026 39.2087 10.5006 39.2087 11.3816C39.2087 12.2626 39.8426 12.849 40.8138 12.849H42.0384C42.292 12.849 42.5033 13.0168 42.5033 13.2266C42.5033 13.4363 42.3343 13.6041 42.0384 13.6041H39.3355V14.7359H42.0384C43.1786 14.7359 43.8125 14.0656 43.8125 13.1427C43.8125 12.2197 43.2209 11.7172 42.2075 11.7172ZM37.2665 11.7172H36.0418C35.7883 11.7172 35.577 11.5494 35.577 11.3396C35.577 11.0879 35.7883 10.9621 36.0418 10.9621H38.2799L38.787 9.83026H36.0418C34.9017 9.83026 34.2687 10.5006 34.2687 11.3816C34.2687 12.2626 34.9017 12.849 35.8737 12.849H37.0984C37.3519 12.849 37.5632 13.0168 37.5632 13.2266C37.5632 13.4363 37.3942 13.6041 37.0984 13.6041H34.3954V14.7359H37.0984C38.2385 14.7359 38.8715 14.0656 38.8715 13.1427C38.9138 12.2206 38.323 11.7172 37.2665 11.7172ZM29.4545 14.777H33.6779V13.6452H30.8059V12.849H33.6356V11.7172H30.8059V10.921H33.6779V9.78919H29.4545V14.7779V14.777ZM26.8361 11.927H25.4424V10.921H26.8361C27.2164 10.921 27.4277 11.1727 27.4277 11.4244C27.4277 11.7181 27.2164 11.9278 26.8361 11.9278M28.7783 11.3825C28.7783 10.4185 28.1021 9.78919 27.0042 9.78919H24.09V14.7779H25.4415V13.0596H25.9486L27.4691 14.7779H29.0741L27.4268 12.9757C28.2712 12.766 28.7783 12.1795 28.7783 11.3825ZM21.557 12.0117H20.121V10.9219H21.557C21.9374 10.9219 22.1487 11.1736 22.1487 11.4672C22.1487 11.7609 21.9796 12.0126 21.557 12.0126M21.7261 9.79093H18.8118V14.7796H20.1633V13.1444H21.7261C22.8662 13.1444 23.5424 12.4321 23.5424 11.4672C23.5001 10.4613 22.8248 9.79006 21.7261 9.79006M18.5592 9.79006H16.8282L15.5613 11.2994L14.2521 9.79006H12.478L14.7161 12.2634L12.4358 14.7788H14.1667L15.5182 13.1855L16.8696 14.7788H18.6428L16.3625 12.2215L18.5583 9.79006H18.5592ZM8.04421 14.7788H12.2667V13.647H9.35252V12.8508H12.1822V11.7189H9.35252V10.9227H12.2667V9.79093H8.04421V14.7796V14.7788ZM41.7003 6.43483L39.6313 3.41695H37.9418V8.36371H39.2933V5.21911L41.4045 8.36284H43.0095V3.41695H41.7003V6.4357V6.43483ZM33.9297 6.26702L34.6472 4.58984L35.3648 6.26702H33.9288H33.9297ZM33.7606 3.41608L31.5649 8.40479H33.0431L33.4657 7.39883H35.7883L36.2109 8.40479H37.7314L35.4933 3.41695H33.7615L33.7606 3.41608ZM29.3691 5.93141V5.84751C29.3691 5.09326 29.7917 4.58984 30.636 4.58984H32.1142V3.375H30.5092C28.8619 3.375 28.0176 4.42291 28.0176 5.80643V5.89033C28.0176 7.44166 28.9887 8.32176 30.467 8.32176H30.9318L31.4803 7.18995H30.6783C29.8762 7.2319 29.3691 6.77044 29.3691 5.93228M25.9909 8.36371H27.3423V3.41695H25.9909V8.36371ZM23.3725 5.51277H21.9787V4.50681H23.3725C23.7528 4.50681 23.9641 4.75852 23.9641 5.01023C23.9641 5.30389 23.7528 5.51364 23.3725 5.51364M25.3147 5.01023C25.3147 4.04622 24.6385 3.41695 23.5415 3.41695H20.6273V8.40567H21.9787V6.64546H22.4859L24.0064 8.36459H25.6537L23.965 6.56243C24.8093 6.39462 25.3165 5.76623 25.3165 5.0111M15.519 8.36459H19.7416V7.23278H16.8696V6.43657H19.6571V5.30476H16.8696V4.50856H19.7416V3.41695H15.519V8.36371V8.36459ZM11.2542 6.5196L10.1132 3.41695H8.04421V8.36371H9.3534V4.80047L10.6626 8.36371H11.845L13.1542 4.80047V8.36371H14.5057V3.41695H12.3944L11.2542 6.51873V6.5196ZM3.99071 6.26789L4.70826 4.59072L5.42581 6.26789H3.98983H3.99071ZM3.82079 3.41695L1.625 8.36371H3.10324L3.52585 7.35776H5.84842L6.27102 8.36371H7.79152L5.55259 3.41695H3.82079Z" fill="#006FCF"/>
</svg>
