<svg xmlns="http://www.w3.org/2000/svg" width="27" height="18" viewBox="0 0 27 18" fill="none">
  <rect x="1" y="0.5" width="25" height="17" rx="5.5" fill="#1F72CD" stroke="#D9D9D9"/>
  <path fill-rule="evenodd" clip-rule="evenodd" d="M5.16113 6.375L2.72852 11.8101H5.6407L6.00172 10.9435H6.82695L7.18797 11.8101H10.3935V11.1487L10.6791 11.8101H12.3372L12.6229 11.1347V11.8101H19.2894L20.1 10.966L20.8591 11.8101L24.2831 11.817L21.8428 9.1077L24.2831 6.375H20.9122L20.1231 7.20347L19.3879 6.375H12.1356L11.5128 7.77783L10.8755 6.375H7.96938V7.01389L7.64609 6.375H5.16113ZM15.1163 7.14679H18.9445L20.1154 8.42372L21.324 7.14679H22.4949L20.7159 9.10694L22.4949 11.0445H21.2709L20.1 9.75273L18.8852 11.0445H15.1163V7.14679ZM16.0616 8.66622V7.95428V7.9536H18.4503L19.4926 9.09218L18.4042 10.237H16.0616V9.45975H18.1501V8.66622H16.0616ZM5.72462 7.14679H7.14415L8.75771 10.8323V7.14679H10.3127L11.559 9.7893L12.7076 7.14679H14.2549V11.0468H13.3134L13.3057 7.99077L11.9331 11.0468H11.0909L9.71067 7.99077V11.0468H7.77384L7.40665 10.1725H5.42287L5.05644 11.046H4.0187L5.72462 7.14679ZM5.7616 9.3642L6.41517 7.80665L7.06799 9.3642H5.7616Z" fill="white"/>
</svg>