<svg width="30" height="14" viewBox="0 0 30 14" fill="none" xmlns="http://www.w3.org/2000/svg">
<path fill-rule="evenodd" clip-rule="evenodd" d="M5.84455 2.51264C5.50174 2.92109 4.95324 3.24325 4.40474 3.19723C4.33618 2.64495 4.60471 2.05816 4.91896 1.69573C5.26177 1.27577 5.86169 0.976625 6.34734 0.953613C6.40447 1.5289 6.18165 2.09268 5.84455 2.51264ZM6.34159 3.30654C5.85837 3.27853 5.41746 3.45286 5.06132 3.59366C4.83214 3.68428 4.63806 3.76101 4.49041 3.76101C4.32471 3.76101 4.12262 3.68017 3.89572 3.58941C3.59841 3.47049 3.2585 3.33453 2.90205 3.34105C2.08501 3.35256 1.32511 3.81854 0.908022 4.56066C0.0509922 6.04489 0.685194 8.24248 1.51366 9.45058C1.91932 10.0489 2.40497 10.7047 3.04488 10.6817C3.32641 10.671 3.52892 10.5845 3.7385 10.4949C3.97979 10.3918 4.23044 10.2847 4.62182 10.2847C4.99963 10.2847 5.23932 10.389 5.46941 10.4892C5.68819 10.5844 5.89829 10.6758 6.21018 10.6702C6.87295 10.6587 7.29004 10.0719 7.6957 9.47359C8.13348 8.83145 8.32585 8.20476 8.35505 8.10966L8.35847 8.09866C8.35777 8.09795 8.35236 8.09546 8.34282 8.09106C8.19647 8.0236 7.07794 7.50801 7.06721 6.12543C7.05644 4.96495 7.95441 4.37698 8.09576 4.28443C8.10436 4.27879 8.11016 4.27499 8.11279 4.27301C7.54143 3.42159 6.65012 3.32955 6.34159 3.30654ZM10.9296 10.6069V1.63824H14.272C15.9975 1.63824 17.2031 2.83483 17.2031 4.58369C17.2031 6.33256 15.9746 7.54066 14.2263 7.54066H12.3123V10.6069H10.9296ZM12.3122 2.81176H13.9062C15.1061 2.81176 15.7917 3.45608 15.7917 4.58939C15.7917 5.7227 15.1061 6.37277 13.9005 6.37277H12.3122V2.81176ZM21.7682 9.53106C21.4026 10.2329 20.5969 10.6759 19.7285 10.6759C18.4429 10.6759 17.5459 9.905 17.5459 8.74292C17.5459 7.59235 18.4144 6.93078 20.0199 6.83298L21.7454 6.72943V6.23468C21.7454 5.50407 21.2711 5.10713 20.4255 5.10713C19.7285 5.10713 19.22 5.46956 19.1171 6.02183H17.8716C17.9116 4.85975 18.9972 4.01409 20.4655 4.01409C22.0482 4.01409 23.0766 4.84825 23.0766 6.14264V10.6068H21.7968V9.53106H21.7682ZM20.0998 9.61164C19.3627 9.61164 18.8942 9.25497 18.8942 8.70845C18.8942 8.14467 19.3456 7.81676 20.2084 7.76498L21.7453 7.66718V8.17343C21.7453 9.01335 21.0368 9.61164 20.0998 9.61164ZM27.3217 10.9579C26.7675 12.5284 26.1333 13.0461 24.7849 13.0461C24.6821 13.0461 24.3393 13.0346 24.2593 13.0116V11.9358C24.345 11.9473 24.5564 11.9589 24.6649 11.9589C25.2763 11.9589 25.6191 11.7 25.8305 11.0269L25.9562 10.6299L23.6137 4.10046H25.0592L26.6875 9.39884H26.7161L28.3445 4.10046H29.75L27.3217 10.9579Z" fill="black"/>
</svg>
