<svg width="46" height="18" viewBox="0 0 46 18" fill="none" xmlns="http://www.w3.org/2000/svg">
<path d="M35.1895 10.9429H35.21L36.959 6.55521H38.1875L34.4102 15.3531H33.2441L34.6484 12.2749L32.1699 6.55521H33.3984L35.1895 10.9429ZM29.2773 6.35599C30.1129 6.35599 30.7733 6.58398 31.2578 7.03275C31.7421 7.4815 31.9805 8.10843 31.9805 8.89896V12.6675H30.8994V11.8199H30.8506C30.3802 12.518 29.7618 12.8667 28.9824 12.8667C28.3224 12.8667 27.7607 12.667 27.3184 12.2681C26.8831 11.8977 26.6373 11.3489 26.6514 10.772C26.6515 10.1383 26.8901 9.63969 27.3604 9.26224C27.8307 8.88474 28.4627 8.69978 29.249 8.69974C29.923 8.69974 30.4709 8.82768 30.9062 9.06986V8.80619C30.9062 8.41456 30.7381 8.04403 30.4434 7.78763C30.1414 7.51694 29.7547 7.36771 29.3545 7.36771C28.7227 7.36773 28.2244 7.6381 27.8594 8.17923L26.8623 7.54544C27.3959 6.75486 28.2032 6.35599 29.2773 6.35599ZM23.9199 3.7349C24.6431 3.72065 25.3449 3.99843 25.8574 4.51126C26.8824 5.47996 26.946 7.1106 25.9844 8.15775L25.8574 8.28665C25.3309 8.79218 24.6851 9.04837 23.9199 9.04837H22.0527V12.6675H20.9219V3.7349H23.9199ZM29.4248 9.62552C28.9685 9.62558 28.5824 9.73971 28.2734 9.96048C27.9716 10.1812 27.8175 10.4588 27.8174 10.7935C27.8174 11.0927 27.9577 11.3706 28.1895 11.5415C28.4422 11.7409 28.7514 11.8485 29.0674 11.8413C29.5448 11.8412 30.0009 11.648 30.3379 11.3062C30.71 10.95 30.8994 10.5298 30.8994 10.0454C30.5483 9.76074 30.0566 9.6184 29.4248 9.62552ZM22.0527 7.95169H23.9482C24.3696 7.96594 24.7775 7.79511 25.0654 7.4888C25.6553 6.8691 25.6411 5.87135 25.0303 5.27298C24.7424 4.98805 24.3555 4.83158 23.9482 4.83158H22.0527V7.95169Z" fill="#3C4043"/>
<path d="M18.1486 8.26512C18.1486 7.91607 18.1205 7.56702 18.0644 7.2251H13.2969V9.19828H16.0282C15.9158 9.83227 15.5507 10.4021 15.0171 10.7583V12.0405H16.6461C17.601 11.1501 18.1486 9.83227 18.1486 8.26512Z" fill="#4285F4"/>
<path d="M13.2979 13.2801C14.6601 13.2801 15.8116 12.8242 16.6471 12.0406L15.0181 10.7584C14.5618 11.0718 13.979 11.2499 13.2979 11.2499C11.9779 11.2499 10.8615 10.3453 10.4613 9.13428H8.7832V10.4592C9.63981 12.1902 11.3881 13.2801 13.2979 13.2801Z" fill="#34A853"/>
<path d="M10.4611 9.13399C10.2504 8.50001 10.2504 7.80904 10.4611 7.16793V5.8501H8.78272C8.05941 7.29615 8.05941 9.00577 8.78272 10.4518L10.4611 9.13399Z" fill="#FBBC04"/>
<path d="M13.2979 5.05246C14.0211 5.03821 14.7162 5.31602 15.2358 5.82179L16.6822 4.35436C15.7624 3.4853 14.5547 3.00804 13.2979 3.02228C11.3881 3.02228 9.63981 4.11929 8.7832 5.85028L10.4613 7.17524C10.8615 5.95713 11.9779 5.05246 13.2979 5.05246Z" fill="#EA4335"/>
</svg>
