<svg xmlns="http://www.w3.org/2000/svg" width="26" height="16" viewBox="0 0 26 16" fill="none">
  <path d="M17.6553 0.6875C21.7947 0.687725 25.1504 4.00353 25.1504 8.09375C25.1504 12.184 21.7947 15.4998 17.6553 15.5C15.7993 15.5 14.102 14.8316 12.793 13.7275C11.4839 14.8316 9.78667 15.5 7.93066 15.5C3.7912 15.4998 0.435548 12.184 0.435547 8.09375C0.435547 4.0035 3.79119 0.687675 7.93066 0.6875C9.78644 0.6875 11.484 1.35516 12.793 2.45898C14.102 1.35519 15.7995 0.6875 17.6553 0.6875Z" fill="#ED0006"/>
  <path d="M17.6553 0.6875C21.7947 0.687721 25.1504 4.00353 25.1504 8.09375C25.1504 12.184 21.7947 15.4998 17.6553 15.5C15.7993 15.5 14.102 14.8316 12.793 13.7275C14.4037 12.3691 15.4268 10.3502 15.4268 8.09375C15.4268 5.83707 14.404 3.81742 12.793 2.45898C14.102 1.35519 15.7995 0.6875 17.6553 0.6875Z" fill="#F9A000"/>
  <path d="M12.792 2.45898C14.4031 3.81742 15.4258 5.83693 15.4258 8.09375C15.4257 10.3504 14.4029 12.3691 12.792 13.7275C11.1815 12.3692 10.1592 10.35 10.1592 8.09375C10.1592 5.83731 11.1813 3.81742 12.792 2.45898Z" fill="#FF5E00"/>
</svg>