<svg xmlns="http://www.w3.org/2000/svg" width="84" height="34" viewBox="0 0 84 34" fill="none">
  <path d="M54.5713 8.68945C57.85 8.68945 60.9422 11.7222 60.9609 17.2881C60.9608 23.3719 57.9064 26.1357 54.5527 26.1357C52.904 26.1357 51.9108 25.4258 51.2363 24.9268L51.2178 30.3584L46.5342 31.375V8.99609H50.6562L50.8994 10.1865C51.5551 9.57238 52.7353 8.68954 54.5713 8.68945ZM14.6084 8.68945C16.1634 8.68945 17.6999 8.93897 19.2549 9.57227V14.082C17.831 13.2953 16.0322 12.8545 14.6084 12.8545C13.6156 12.8546 13.0166 13.1422 13.0166 13.8906C13.0168 16.0401 20.154 15.023 20.1729 20.7422C20.1729 24.1777 17.4937 26.1543 13.5967 26.1543C11.9855 26.1543 10.2247 25.8282 8.48242 25.0605V20.4932C10.0561 21.3759 12.0418 22.0282 13.5967 22.0283C14.6459 22.0283 15.3955 21.7403 15.3955 20.8574C15.3953 18.5737 8.27658 19.418 8.27637 14.1211C8.27637 10.7241 10.8052 8.68956 14.6084 8.68945ZM25.6621 9.01562H29.2227V13.1035H25.6621V19.917C25.6621 22.7575 28.6231 21.8745 29.2227 21.625V25.5215C28.6044 25.867 27.4797 26.1543 25.9434 26.1543C23.1707 26.1542 21.091 24.0629 21.0908 21.2227L21.1094 5.84863L25.6816 4.85059L25.6621 9.01562ZM68.9609 8.68945C73.4012 8.6895 75.7246 12.5662 75.7246 17.4795C75.7246 17.94 75.6865 18.9376 75.6865 19.1875H66.5254C66.7315 21.4523 68.3428 22.1055 70.1602 22.1055C72.0147 22.1054 73.4761 21.7022 74.75 21.0498V24.8877C73.476 25.617 71.79 26.1357 69.5605 26.1357C64.9891 26.1357 61.8038 23.2183 61.8037 17.4414C61.8037 12.5664 64.5018 8.68945 68.9609 8.68945ZM35.0498 10.4355C36.1552 8.36331 38.3467 8.78532 38.9463 9.01562V13.4297C38.3653 13.2186 36.492 12.9503 35.3867 14.4277V25.8096H30.7031V9.01562H34.75L35.0498 10.4355ZM44.792 25.8096H40.0889V9.01562H44.792V25.8096ZM53.4473 12.9502C52.3795 12.9502 51.7049 13.3341 51.2178 13.8906L51.2363 21.0107C51.686 21.5097 52.342 21.913 53.4473 21.9131C55.1709 21.9131 56.333 19.9937 56.333 17.4219C56.333 14.9076 55.1522 12.9502 53.4473 12.9502ZM68.9424 12.585C67.762 12.585 66.4688 13.4875 66.4688 15.6562H71.3027C71.3027 13.4877 70.0851 12.5852 68.9424 12.585ZM44.792 6.52051L40.0889 7.55664V3.6416L44.792 2.62402V6.52051Z" fill="#6461FC"/>
</svg>