<svg xmlns="http://www.w3.org/2000/svg" width="46" height="18" viewBox="0 0 46 18" fill="none">
  <path fill-rule="evenodd" clip-rule="evenodd" d="M13.9042 14.5508H10.7877L8.45082 5.37309C8.3399 4.95092 8.10438 4.57769 7.75795 4.40178C6.89338 3.95972 5.94068 3.60791 4.90137 3.43047V3.07713H9.92166C10.6145 3.07713 11.1342 3.60791 11.2208 4.22435L12.4333 10.8445L15.5482 3.07713H18.578L13.9042 14.5508ZM20.3102 14.5508H17.367L19.7905 3.07713H22.7337L20.3102 14.5508ZM26.5415 6.25568C26.6281 5.63771 27.1477 5.28437 27.754 5.28437C28.7067 5.19565 29.7445 5.37309 30.6106 5.81362L31.1302 3.34328C30.2642 2.98994 29.3115 2.8125 28.4469 2.8125C25.5903 2.8125 23.5117 4.40178 23.5117 6.60749C23.5117 8.28549 24.984 9.16655 26.0234 9.69733C27.1477 10.2266 27.5808 10.5799 27.4942 11.1092C27.4942 11.903 26.6281 12.2564 25.7635 12.2564C24.7242 12.2564 23.6849 11.9918 22.7337 11.5497L22.2141 14.0216C23.2534 14.4621 24.3778 14.6395 25.4171 14.6395C28.6201 14.7267 30.6106 13.139 30.6106 10.7558C30.6106 7.75471 26.5415 7.5788 26.5415 6.25568V6.25568ZM40.911 14.5508L38.574 3.07713H36.0639C35.5442 3.07713 35.0246 3.43047 34.8514 3.95972L30.524 14.5508H33.5538L34.1585 12.8744H37.8812L38.2276 14.5508H40.911ZM36.497 6.16701L37.3615 10.4913H34.938L36.497 6.16701Z" fill="#172B85"/>
</svg>